<?xml version="1.0" encoding="UTF-8"?>
<svg xmlns="http://www.w3.org/2000/svg" xmlns:xlink="http://www.w3.org/1999/xlink" width="200pt" height="200pt" viewBox="0 0 200 200" version="1.1">
<g id="surface1">
<path style=" stroke:none;fill-rule:evenodd;fill:rgb(0%,0%,0%);fill-opacity:1;" d="M 100 179.941406 C 53.082031 133.785156 8.332031 94.132812 8.332031 59.925781 C 8.332031 28.332031 33.898438 16.667969 52.339844 16.667969 C 63.273438 16.667969 86.933594 20.839844 100 53.808594 C 113.25 20.742188 137.199219 16.75 147.714844 16.75 C 168.882812 16.75 191.667969 30.257812 191.667969 59.925781 C 191.667969 93.832031 148.867188 131.800781 100 179.941406 M 147.714844 8.417969 C 129.359375 8.417969 110.667969 17.101562 100 35.398438 C 89.292969 17.015625 70.648438 8.332031 52.339844 8.332031 C 25.816406 8.332031 0 26.558594 0 59.925781 C 0 98.765625 46.425781 138.5 100 191.667969 C 153.582031 138.5 200 98.765625 200 59.925781 C 200 26.5 174.207031 8.417969 147.714844 8.417969 "/>
</g>
</svg>
